<svg xmlns="http://www.w3.org/2000/svg" width="32" height="32" fill="none" viewBox="0 0 32 32" id="cat">
  <path fill="url(#paint0_linear_6891_5252)" d="M4 25.942C4 28.1739 5.76327 30 7.91837 30H24.0816C26.2367 30 28 28.0725 28 25.8406V6.4297C28 5.1297 26.4099 4.5297 25.5155 5.4297L20.9736 10H11.1617L6.5 5.4297C5.6 4.5297 4 5.1297 4 6.4297V25.942Z"></path>
  <path fill="url(#paint1_linear_6891_5252)" d="M4 25.942C4 28.1739 5.76327 30 7.91837 30H24.0816C26.2367 30 28 28.0725 28 25.8406V6.4297C28 5.1297 26.4099 4.5297 25.5155 5.4297L20.9736 10H11.1617L6.5 5.4297C5.6 4.5297 4 5.1297 4 6.4297V25.942Z"></path>
  <path fill="url(#paint2_linear_6891_5252)" d="M4 25.942C4 28.1739 5.76327 30 7.91837 30H24.0816C26.2367 30 28 28.0725 28 25.8406V6.4297C28 5.1297 26.4099 4.5297 25.5155 5.4297L20.9736 10H11.1617L6.5 5.4297C5.6 4.5297 4 5.1297 4 6.4297V25.942Z"></path>
  <path fill="url(#paint3_linear_6891_5252)" d="M4 25.942C4 28.1739 5.76327 30 7.91837 30H24.0816C26.2367 30 28 28.0725 28 25.8406V6.4297C28 5.1297 26.4099 4.5297 25.5155 5.4297L20.9736 10H11.1617L6.5 5.4297C5.6 4.5297 4 5.1297 4 6.4297V25.942Z"></path>
  <path fill="url(#paint4_linear_6891_5252)" d="M4 25.942C4 28.1739 5.76327 30 7.91837 30H24.0816C26.2367 30 28 28.0725 28 25.8406V6.4297C28 5.1297 26.4099 4.5297 25.5155 5.4297L20.9736 10H11.1617L6.5 5.4297C5.6 4.5297 4 5.1297 4 6.4297V25.942Z"></path>
  <path fill="url(#paint5_radial_6891_5252)" d="M4 25.942C4 28.1739 5.76327 30 7.91837 30H24.0816C26.2367 30 28 28.0725 28 25.8406V6.4297C28 5.1297 26.4099 4.5297 25.5155 5.4297L20.9736 10H11.1617L6.5 5.4297C5.6 4.5297 4 5.1297 4 6.4297V25.942Z"></path>
  <g filter="url(#filter0_f_6891_5252)">
    <rect width="2.727" height="3.698" x="5.054" y="21.82" fill="#D67908" rx="1.363"></rect>
  </g>
  <g filter="url(#filter1_f_6891_5252)">
    <path fill="url(#paint6_linear_6891_5252)" d="M20.7508 10.2007C17.7675 10.3082 25.9773 15.1544 25.9773 15.1544L27.1023 6.09195C27.157 5.63101 26.7382 5.13844 25.8523 5.96097C25.8523 5.96097 22.0258 9.72898 21.8387 9.91319C21.6516 10.0974 21.4307 10.1621 21.1371 10.2007C20.9875 10.2203 20.9015 10.1952 20.7508 10.2007Z"></path>
  </g>
  <path fill="url(#paint7_linear_6891_5252)" d="M6.13258 13.5034L8.93258 10.9034C9.25258 10.6034 9.25258 10.1234 8.93258 9.83344L5.9179 7.15626C5.53508 6.82032 4.74258 6.9297 4.74258 7.76344V12.9634C4.74258 13.7969 5.62258 13.9834 6.13258 13.5034Z"></path>
  <g filter="url(#filter2_f_6891_5252)">
    <path fill="url(#paint8_linear_6891_5252)" d="M26.4909 5.65184C26.5488 5.50816 26.6882 5.41406 26.8431 5.41406V5.41406C27.0529 5.41406 27.2229 5.58411 27.2229 5.79388V8.03906L25.8055 7.35156L26.4909 5.65184Z"></path>
  </g>
  <g filter="url(#filter3_f_6891_5252)">
    <path stroke="#FFDF70" stroke-linecap="round" d="M5.44611 5.72656L8.82107 8.9461C9.57518 9.66548 9.58931 10.8646 8.85236 11.6016V11.6016"></path>
  </g>
  <g filter="url(#filter4_f_6891_5252)">
    <path fill="url(#paint9_linear_6891_5252)" d="M14.8054 20.6502L14.8697 20.6352C15.3433 20.5248 15.8366 20.5299 16.3077 20.6502V20.6502C16.8288 20.7484 17.1399 21.3457 16.6999 21.7757L16.1491 22.3773C15.8791 22.6473 15.2863 22.6473 15.0163 22.3773L14.4734 21.7757C14.0241 21.2679 14.3054 20.7601 14.8054 20.6502Z"></path>
  </g>
  <path fill="url(#paint10_radial_6891_5252)" d="M15.2265 20.2066L15.2908 20.1916C15.7644 20.0811 16.2577 20.0862 16.7289 20.2066V20.2066C17.25 20.3047 17.561 20.902 17.121 21.332L16.5703 21.9336C16.3003 22.2036 15.7075 22.2036 15.4375 21.9336L14.8945 21.332C14.4453 20.8242 14.7265 20.3164 15.2265 20.2066Z"></path>
  <g filter="url(#filter5_f_6891_5252)">
    <ellipse cx="16.27" cy="20.741" fill="url(#paint11_linear_6891_5252)" rx=".762" ry=".274"></ellipse>
  </g>
  <g filter="url(#filter6_f_6891_5252)">
    <path stroke="url(#paint12_linear_6891_5252)" stroke-linecap="round" stroke-miterlimit="10" stroke-width="1.2" d="M24.7851 22.8923L28.5898 21.0798"></path>
  </g>
  <g filter="url(#filter7_f_6891_5252)">
    <path stroke="url(#paint13_linear_6891_5252)" stroke-linecap="round" stroke-miterlimit="10" stroke-width="1.2" d="M24.7851 24.9235L26.7117 26.2891"></path>
  </g>
  <path stroke="url(#paint14_linear_6891_5252)" stroke-linecap="round" stroke-miterlimit="10" stroke-width="1.2" d="M25.5663 22.5391L29.371 20.7266"></path>
  <g filter="url(#filter8_f_6891_5252)">
    <path stroke="#FF8485" stroke-linecap="round" stroke-miterlimit="10" stroke-width=".3" d="M25.5663 22.7109L29.371 20.8984"></path>
  </g>
  <g filter="url(#filter9_f_6891_5252)">
    <ellipse cx="29.606" cy="20.581" fill="#FFDD86" rx=".184" ry=".166" transform="rotate(-22.745 29.606 20.58)"></ellipse>
  </g>
  <path stroke="url(#paint15_linear_6891_5252)" stroke-linecap="round" stroke-miterlimit="10" stroke-width="1.2" d="M25.5636 24.6692L29.3652 26.4883"></path>
  <g filter="url(#filter10_f_6891_5252)">
    <path stroke="#FF8485" stroke-linecap="round" stroke-miterlimit="10" stroke-width=".3" d="M25.4984 24.5491L29.3 26.3682"></path>
  </g>
  <g filter="url(#filter11_f_6891_5252)">
    <ellipse cx="29.54" cy="26.368" fill="#FFDD86" rx=".184" ry=".166" transform="rotate(28.298 29.54 26.368)"></ellipse>
  </g>
  <path stroke="url(#paint16_linear_6891_5252)" stroke-linecap="round" stroke-miterlimit="10" stroke-width="1.2" d="M6.5281 24.681L2.72654 26.5"></path>
  <g filter="url(#filter12_f_6891_5252)">
    <path stroke="#FF8485" stroke-linecap="round" stroke-miterlimit="10" stroke-width=".3" d="M6.59334 24.5608L2.79179 26.3799"></path>
  </g>
  <g filter="url(#filter13_f_6891_5252)">
    <ellipse fill="#FFDD86" rx=".184" ry=".166" transform="scale(-1 1)rotate(-19.477 68.068 31.615)"></ellipse>
  </g>
  <path stroke="url(#paint17_linear_6891_5252)" stroke-linecap="round" stroke-miterlimit="10" stroke-width="1.2" d="M6.53973 22.5243L2.72615 20.7306"></path>
  <g filter="url(#filter14_f_6891_5252)">
    <path stroke="#FF8485" stroke-linecap="round" stroke-miterlimit="10" stroke-width=".3" d="M6.67403 22.4988L2.86046 20.7051"></path>
  </g>
  <g filter="url(#filter15_f_6891_5252)">
    <ellipse fill="#FFDD86" rx=".184" ry=".166" transform="scale(-1 1)rotate(-70.238 12.623 16.051)"></ellipse>
  </g>
  <path fill="url(#paint18_linear_6891_5252)" d="M20.4179 23.0547C20.4179 25.4947 18.436 27.3906 15.996 27.3906C13.556 27.3906 11.6835 25.4478 11.6835 23.0078C11.6835 23.0078 13.4882 25.1406 15.996 23.0078C18.3476 25.0859 20.4179 23.0547 20.4179 23.0547Z"></path>
  <g filter="url(#filter16_f_6891_5252)">
    <path fill="url(#paint19_linear_6891_5252)" d="M19.4316 20.4682C19.0065 20.4682 18.6563 20.1251 18.6563 19.7085V18.2872C18.6563 17.8706 19.0065 17.5275 19.4316 17.5275C19.8568 17.5275 20.2069 17.8706 20.2069 18.2872V19.7085C20.2069 20.1373 19.8568 20.4682 19.4316 20.4682Z"></path>
  </g>
  <path fill="url(#paint20_linear_6891_5252)" d="M19.9707 20.086C19.5455 20.086 19.1954 19.7429 19.1954 19.3263V17.905C19.1954 17.4884 19.5455 17.1453 19.9707 17.1453C20.3959 17.1453 20.746 17.4884 20.746 17.905V19.3263C20.746 19.7551 20.3959 20.086 19.9707 20.086Z"></path>
  <path fill="url(#paint21_linear_6891_5252)" d="M19.9707 20.086C19.5455 20.086 19.1954 19.7429 19.1954 19.3263V17.905C19.1954 17.4884 19.5455 17.1453 19.9707 17.1453C20.3959 17.1453 20.746 17.4884 20.746 17.905V19.3263C20.746 19.7551 20.3959 20.086 19.9707 20.086Z"></path>
  <g filter="url(#filter17_f_6891_5252)">
    <path fill="url(#paint22_linear_6891_5252)" d="M11.6054 20.4682C11.1802 20.4682 10.8301 20.1251 10.8301 19.7085V18.2872C10.8301 17.8706 11.1802 17.5275 11.6054 17.5275C12.0306 17.5275 12.3807 17.8706 12.3807 18.2872V19.7085C12.3807 20.1373 12.0306 20.4682 11.6054 20.4682Z"></path>
  </g>
  <path fill="url(#paint23_linear_6891_5252)" d="M12.029 20.086C11.6038 20.086 11.2537 19.7429 11.2537 19.3263V17.905C11.2537 17.4884 11.6038 17.1453 12.029 17.1453C12.4541 17.1453 12.8043 17.4884 12.8043 17.905V19.3263C12.8043 19.7551 12.4541 20.086 12.029 20.086Z"></path>
  <path fill="url(#paint24_linear_6891_5252)" d="M12.029 20.086C11.6038 20.086 11.2537 19.7429 11.2537 19.3263V17.905C11.2537 17.4884 11.6038 17.1453 12.029 17.1453C12.4541 17.1453 12.8043 17.4884 12.8043 17.905V19.3263C12.8043 19.7551 12.4541 20.086 12.029 20.086Z"></path>
  <g filter="url(#filter18_f_6891_5252)">
    <circle cx="20.207" cy="17.764" r=".236" fill="#775B70"></circle>
  </g>
  <g filter="url(#filter19_f_6891_5252)">
    <circle cx="12.265" cy="17.764" r=".236" fill="#775B70"></circle>
  </g>
  <g filter="url(#filter20_f_6891_5252)">
    <rect width="4.585" height="14.186" x="22.102" y="10.102" fill="url(#paint25_linear_6891_5252)"></rect>
  </g>
  <path fill="#FFB915" d="M25.8329 13.5034L23.0329 10.9034C22.7129 10.6034 22.7129 10.1234 23.0329 9.83344L26.0476 7.15626C26.4304 6.82032 27.2229 6.9297 27.2229 7.76344V12.9634C27.2229 13.7969 26.3429 13.9834 25.8329 13.5034Z"></path>
  <path fill="url(#paint26_linear_6891_5252)" d="M25.8329 13.5034L23.0329 10.9034C22.7129 10.6034 22.7129 10.1234 23.0329 9.83344L26.0476 7.15626C26.4304 6.82032 27.2229 6.9297 27.2229 7.76344V12.9634C27.2229 13.7969 26.3429 13.9834 25.8329 13.5034Z"></path>
  <g filter="url(#filter21_f_6891_5252)">
    <path fill="url(#paint27_radial_6891_5252)" d="M26.6336 7.36719L23.0086 10.4922L26.5555 13.3047L26.6336 7.36719Z"></path>
  </g>
  <g filter="url(#filter22_f_6891_5252)">
    <path stroke="url(#paint28_linear_6891_5252)" stroke-linecap="round" stroke-width=".5" d="M23.7274 10.2891L26.2586 13.0234"></path>
  </g>
  <g filter="url(#filter23_f_6891_5252)">
    <path fill="#FEB33E" d="M5.22321 7.49927V13.407L8.69196 10.3176L5.22321 7.49927Z"></path>
  </g>
  <g filter="url(#filter24_f_6891_5252)">
    <path stroke="#FFE7A3" stroke-linecap="round" stroke-width=".15" d="M5.22321 7.72656V12.9141"></path>
  </g>
  <defs>
    <linearGradient id="paint0_linear_6891_5252" x1="7.907" x2="7.907" y1="1.35" y2="30.99" gradientUnits="userSpaceOnUse">
      <stop offset=".288" stop-color="#F2CC26"></stop>
      <stop offset=".762" stop-color="#E99E20"></stop>
      <stop offset=".993" stop-color="#E3821D"></stop>
      <stop offset="1" stop-color="#E3801D"></stop>
    </linearGradient>
    <linearGradient id="paint1_linear_6891_5252" x1="8.831" x2="1.17" y1="12.033" y2="12.033" gradientUnits="userSpaceOnUse">
      <stop stop-color="#E99E20" stop-opacity="0"></stop>
      <stop offset=".993" stop-color="#E3821D"></stop>
      <stop offset="1" stop-color="#E3801D"></stop>
    </linearGradient>
    <linearGradient id="paint2_linear_6891_5252" x1="26.791" x2="30.245" y1="12.033" y2="12.033" gradientUnits="userSpaceOnUse">
      <stop stop-color="#E99E20" stop-opacity="0"></stop>
      <stop offset=".993" stop-color="#E3821D"></stop>
      <stop offset="1" stop-color="#E3801D"></stop>
    </linearGradient>
    <linearGradient id="paint3_linear_6891_5252" x1="16.001" x2="16" y1="-1.595" y2="30.99" gradientUnits="userSpaceOnUse">
      <stop offset=".771" stop-color="#F59639" stop-opacity="0"></stop>
      <stop offset="1" stop-color="#FF63C4"></stop>
    </linearGradient>
    <linearGradient id="paint4_linear_6891_5252" x1="16" x2="16" y1="11.252" y2="32.475" gradientUnits="userSpaceOnUse">
      <stop offset=".854" stop-color="#fff" stop-opacity="0"></stop>
      <stop offset=".985" stop-color="#fff"></stop>
    </linearGradient>
    <linearGradient id="paint6_linear_6891_5252" x1="21.908" x2="28.165" y1="6.852" y2="13.695" gradientUnits="userSpaceOnUse">
      <stop stop-color="#FFA720"></stop>
      <stop offset="1" stop-color="#FFA720" stop-opacity="0"></stop>
    </linearGradient>
    <linearGradient id="paint7_linear_6891_5252" x1="10.602" x2="4.743" y1="10.617" y2="10.07" gradientUnits="userSpaceOnUse">
      <stop offset=".437" stop-color="#ED8C1B"></stop>
      <stop offset="1" stop-color="#FFB03A"></stop>
    </linearGradient>
    <linearGradient id="paint8_linear_6891_5252" x1="27.04" x2="26.444" y1="4.961" y2="7.302" gradientUnits="userSpaceOnUse">
      <stop offset=".286" stop-color="#FFE792"></stop>
      <stop offset="1" stop-color="#FFDD65" stop-opacity="0"></stop>
    </linearGradient>
    <linearGradient id="paint9_linear_6891_5252" x1="15.751" x2="15.079" y1="22.351" y2="23.445" gradientUnits="userSpaceOnUse">
      <stop stop-color="#E3900E"></stop>
      <stop offset="1" stop-color="#EA9D26" stop-opacity="0"></stop>
    </linearGradient>
    <linearGradient id="paint11_linear_6891_5252" x1="17.204" x2="15.68" y1="20.741" y2="20.741" gradientUnits="userSpaceOnUse">
      <stop stop-color="#fff" stop-opacity=".9"></stop>
      <stop offset="1" stop-color="#fff" stop-opacity="0"></stop>
    </linearGradient>
    <linearGradient id="paint12_linear_6891_5252" x1="24.29" x2="28.024" y1="23.236" y2="21.32" gradientUnits="userSpaceOnUse">
      <stop stop-color="#E88105"></stop>
      <stop offset="1" stop-color="#E37D02" stop-opacity="0"></stop>
    </linearGradient>
    <linearGradient id="paint13_linear_6891_5252" x1="24.29" x2="28.024" y1="24.58" y2="26.495" gradientUnits="userSpaceOnUse">
      <stop offset=".286" stop-color="#DE7D07"></stop>
      <stop offset=".818" stop-color="#E37D02" stop-opacity="0"></stop>
    </linearGradient>
    <linearGradient id="paint14_linear_6891_5252" x1="25.29" x2="29.371" y1="22.945" y2="21.008" gradientUnits="userSpaceOnUse">
      <stop offset=".156" stop-color="#D64A38"></stop>
      <stop offset="1" stop-color="#FB7425"></stop>
    </linearGradient>
    <linearGradient id="paint15_linear_6891_5252" x1="25.074" x2="29.146" y1="24.71" y2="26.665" gradientUnits="userSpaceOnUse">
      <stop offset=".156" stop-color="#D64A38"></stop>
      <stop offset="1" stop-color="#FB7425"></stop>
    </linearGradient>
    <linearGradient id="paint16_linear_6891_5252" x1="7.018" x2="2.945" y1="24.721" y2="26.677" gradientUnits="userSpaceOnUse">
      <stop offset=".156" stop-color="#D64A38"></stop>
      <stop offset="1" stop-color="#FB7425"></stop>
    </linearGradient>
    <linearGradient id="paint17_linear_6891_5252" x1="6.818" x2="2.728" y1="22.929" y2="21.012" gradientUnits="userSpaceOnUse">
      <stop offset=".156" stop-color="#D64A38"></stop>
      <stop offset="1" stop-color="#FB7425"></stop>
    </linearGradient>
    <linearGradient id="paint18_linear_6891_5252" x1="16.047" x2="16.047" y1="27.523" y2="23.1" gradientUnits="userSpaceOnUse">
      <stop stop-color="#E61E27"></stop>
      <stop offset="1" stop-color="#672A7A"></stop>
    </linearGradient>
    <linearGradient id="paint19_linear_6891_5252" x1="20.688" x2="21.688" y1="19.68" y2="23.141" gradientUnits="userSpaceOnUse">
      <stop stop-color="#EC9611"></stop>
      <stop offset="1" stop-color="#EA9D26" stop-opacity="0"></stop>
    </linearGradient>
    <linearGradient id="paint20_linear_6891_5252" x1="22.899" x2="18.43" y1="18.211" y2="18.211" gradientUnits="userSpaceOnUse">
      <stop stop-color="#432A3D"></stop>
      <stop offset=".568" stop-color="#684E61"></stop>
      <stop offset=".766" stop-color="#43253D"></stop>
    </linearGradient>
    <linearGradient id="paint21_linear_6891_5252" x1="20.321" x2="20.321" y1="18.055" y2="20.352" gradientUnits="userSpaceOnUse">
      <stop offset=".327" stop-color="#43253D" stop-opacity="0"></stop>
      <stop offset="1" stop-color="#43253D"></stop>
    </linearGradient>
    <linearGradient id="paint22_linear_6891_5252" x1="12.862" x2="13.862" y1="19.68" y2="23.141" gradientUnits="userSpaceOnUse">
      <stop stop-color="#E89311"></stop>
      <stop offset="1" stop-color="#EA9D26" stop-opacity="0"></stop>
    </linearGradient>
    <linearGradient id="paint23_linear_6891_5252" x1="14.957" x2="10.489" y1="18.211" y2="18.211" gradientUnits="userSpaceOnUse">
      <stop stop-color="#432A3D"></stop>
      <stop offset=".568" stop-color="#684E61"></stop>
      <stop offset=".766" stop-color="#43253D"></stop>
    </linearGradient>
    <linearGradient id="paint24_linear_6891_5252" x1="12.379" x2="12.379" y1="18.055" y2="20.352" gradientUnits="userSpaceOnUse">
      <stop offset=".327" stop-color="#43253D" stop-opacity="0"></stop>
      <stop offset="1" stop-color="#43253D"></stop>
    </linearGradient>
    <linearGradient id="paint25_linear_6891_5252" x1="23.352" x2="22.956" y1="10.838" y2="22.889" gradientUnits="userSpaceOnUse">
      <stop offset=".548" stop-color="#FFDD65"></stop>
      <stop offset="1" stop-color="#FFDD65" stop-opacity="0"></stop>
    </linearGradient>
    <linearGradient id="paint26_linear_6891_5252" x1="26.54" x2="25.29" y1="15.508" y2="12.039" gradientUnits="userSpaceOnUse">
      <stop stop-color="#EF8A47"></stop>
      <stop offset="1" stop-color="#EF8A47" stop-opacity="0"></stop>
    </linearGradient>
    <linearGradient id="paint28_linear_6891_5252" x1="25.055" x2="25.055" y1="10.477" y2="12.82" gradientUnits="userSpaceOnUse">
      <stop offset=".432" stop-color="#FFE7A3"></stop>
      <stop offset="1" stop-color="#FFDF83" stop-opacity="0"></stop>
    </linearGradient>
    <filter id="filter0_f_6891_5252" width="5.727" height="6.698" x="3.554" y="20.32" color-interpolation-filters="sRGB" filterUnits="userSpaceOnUse">
      <feFlood flood-opacity="0" result="BackgroundImageFix"></feFlood>
      <feBlend in="SourceGraphic" in2="BackgroundImageFix" result="shape"></feBlend>
      <feGaussianBlur result="effect1_foregroundBlur_6891_5252" stdDeviation=".75"></feGaussianBlur>
    </filter>
    <filter id="filter1_f_6891_5252" width="9.009" height="11.636" x="19.098" y="4.519" color-interpolation-filters="sRGB" filterUnits="userSpaceOnUse">
      <feFlood flood-opacity="0" result="BackgroundImageFix"></feFlood>
      <feBlend in="SourceGraphic" in2="BackgroundImageFix" result="shape"></feBlend>
      <feGaussianBlur result="effect1_foregroundBlur_6891_5252" stdDeviation=".5"></feGaussianBlur>
    </filter>
    <filter id="filter2_f_6891_5252" width="3.417" height="4.625" x="24.805" y="4.414" color-interpolation-filters="sRGB" filterUnits="userSpaceOnUse">
      <feFlood flood-opacity="0" result="BackgroundImageFix"></feFlood>
      <feBlend in="SourceGraphic" in2="BackgroundImageFix" result="shape"></feBlend>
      <feGaussianBlur result="effect1_foregroundBlur_6891_5252" stdDeviation=".5"></feGaussianBlur>
    </filter>
    <filter id="filter3_f_6891_5252" width="8.95" height="10.729" x="2.946" y="3.227" color-interpolation-filters="sRGB" filterUnits="userSpaceOnUse">
      <feFlood flood-opacity="0" result="BackgroundImageFix"></feFlood>
      <feBlend in="SourceGraphic" in2="BackgroundImageFix" result="shape"></feBlend>
      <feGaussianBlur result="effect1_foregroundBlur_6891_5252" stdDeviation="1"></feGaussianBlur>
    </filter>
    <filter id="filter4_f_6891_5252" width="3.661" height="3.024" x="13.748" y="20.056" color-interpolation-filters="sRGB" filterUnits="userSpaceOnUse">
      <feFlood flood-opacity="0" result="BackgroundImageFix"></feFlood>
      <feBlend in="SourceGraphic" in2="BackgroundImageFix" result="shape"></feBlend>
      <feGaussianBlur result="effect1_foregroundBlur_6891_5252" stdDeviation=".25"></feGaussianBlur>
    </filter>
    <filter id="filter5_f_6891_5252" width="2.723" height="1.749" x="14.909" y="19.867" color-interpolation-filters="sRGB" filterUnits="userSpaceOnUse">
      <feFlood flood-opacity="0" result="BackgroundImageFix"></feFlood>
      <feBlend in="SourceGraphic" in2="BackgroundImageFix" result="shape"></feBlend>
      <feGaussianBlur result="effect1_foregroundBlur_6891_5252" stdDeviation=".3"></feGaussianBlur>
    </filter>
    <filter id="filter6_f_6891_5252" width="6.005" height="4.013" x="23.685" y="19.98" color-interpolation-filters="sRGB" filterUnits="userSpaceOnUse">
      <feFlood flood-opacity="0" result="BackgroundImageFix"></feFlood>
      <feBlend in="SourceGraphic" in2="BackgroundImageFix" result="shape"></feBlend>
      <feGaussianBlur result="effect1_foregroundBlur_6891_5252" stdDeviation=".25"></feGaussianBlur>
    </filter>
    <filter id="filter7_f_6891_5252" width="4.127" height="3.566" x="23.685" y="23.823" color-interpolation-filters="sRGB" filterUnits="userSpaceOnUse">
      <feFlood flood-opacity="0" result="BackgroundImageFix"></feFlood>
      <feBlend in="SourceGraphic" in2="BackgroundImageFix" result="shape"></feBlend>
      <feGaussianBlur result="effect1_foregroundBlur_6891_5252" stdDeviation=".25"></feGaussianBlur>
    </filter>
    <filter id="filter8_f_6891_5252" width="5.105" height="3.113" x="24.916" y="20.248" color-interpolation-filters="sRGB" filterUnits="userSpaceOnUse">
      <feFlood flood-opacity="0" result="BackgroundImageFix"></feFlood>
      <feBlend in="SourceGraphic" in2="BackgroundImageFix" result="shape"></feBlend>
      <feGaussianBlur result="effect1_foregroundBlur_6891_5252" stdDeviation=".25"></feGaussianBlur>
    </filter>
    <filter id="filter9_f_6891_5252" width="1.363" height="1.337" x="28.924" y="19.912" color-interpolation-filters="sRGB" filterUnits="userSpaceOnUse">
      <feFlood flood-opacity="0" result="BackgroundImageFix"></feFlood>
      <feBlend in="SourceGraphic" in2="BackgroundImageFix" result="shape"></feBlend>
      <feGaussianBlur result="effect1_foregroundBlur_6891_5252" stdDeviation=".25"></feGaussianBlur>
    </filter>
    <filter id="filter10_f_6891_5252" width="5.102" height="3.119" x="24.848" y="23.899" color-interpolation-filters="sRGB" filterUnits="userSpaceOnUse">
      <feFlood flood-opacity="0" result="BackgroundImageFix"></feFlood>
      <feBlend in="SourceGraphic" in2="BackgroundImageFix" result="shape"></feBlend>
      <feGaussianBlur result="effect1_foregroundBlur_6891_5252" stdDeviation=".25"></feGaussianBlur>
    </filter>
    <filter id="filter11_f_6891_5252" width="1.36" height="1.34" x="28.86" y="25.698" color-interpolation-filters="sRGB" filterUnits="userSpaceOnUse">
      <feFlood flood-opacity="0" result="BackgroundImageFix"></feFlood>
      <feBlend in="SourceGraphic" in2="BackgroundImageFix" result="shape"></feBlend>
      <feGaussianBlur result="effect1_foregroundBlur_6891_5252" stdDeviation=".25"></feGaussianBlur>
    </filter>
    <filter id="filter12_f_6891_5252" width="5.102" height="3.119" x="2.142" y="23.911" color-interpolation-filters="sRGB" filterUnits="userSpaceOnUse">
      <feFlood flood-opacity="0" result="BackgroundImageFix"></feFlood>
      <feBlend in="SourceGraphic" in2="BackgroundImageFix" result="shape"></feBlend>
      <feGaussianBlur result="effect1_foregroundBlur_6891_5252" stdDeviation=".25"></feGaussianBlur>
    </filter>
    <filter id="filter13_f_6891_5252" width="1.364" height="1.336" x="5.964" y="23.837" color-interpolation-filters="sRGB" filterUnits="userSpaceOnUse">
      <feFlood flood-opacity="0" result="BackgroundImageFix"></feFlood>
      <feBlend in="SourceGraphic" in2="BackgroundImageFix" result="shape"></feBlend>
      <feGaussianBlur result="effect1_foregroundBlur_6891_5252" stdDeviation=".25"></feGaussianBlur>
    </filter>
    <filter id="filter14_f_6891_5252" width="5.114" height="3.094" x="2.21" y="20.055" color-interpolation-filters="sRGB" filterUnits="userSpaceOnUse">
      <feFlood flood-opacity="0" result="BackgroundImageFix"></feFlood>
      <feBlend in="SourceGraphic" in2="BackgroundImageFix" result="shape"></feBlend>
      <feGaussianBlur result="effect1_foregroundBlur_6891_5252" stdDeviation=".25"></feGaussianBlur>
    </filter>
    <filter id="filter15_f_6891_5252" width="1.336" height="1.364" x="6.083" y="21.822" color-interpolation-filters="sRGB" filterUnits="userSpaceOnUse">
      <feFlood flood-opacity="0" result="BackgroundImageFix"></feFlood>
      <feBlend in="SourceGraphic" in2="BackgroundImageFix" result="shape"></feBlend>
      <feGaussianBlur result="effect1_foregroundBlur_6891_5252" stdDeviation=".25"></feGaussianBlur>
    </filter>
    <filter id="filter16_f_6891_5252" width="2.551" height="3.941" x="18.156" y="17.027" color-interpolation-filters="sRGB" filterUnits="userSpaceOnUse">
      <feFlood flood-opacity="0" result="BackgroundImageFix"></feFlood>
      <feBlend in="SourceGraphic" in2="BackgroundImageFix" result="shape"></feBlend>
      <feGaussianBlur result="effect1_foregroundBlur_6891_5252" stdDeviation=".25"></feGaussianBlur>
    </filter>
    <filter id="filter17_f_6891_5252" width="2.551" height="3.941" x="10.33" y="17.027" color-interpolation-filters="sRGB" filterUnits="userSpaceOnUse">
      <feFlood flood-opacity="0" result="BackgroundImageFix"></feFlood>
      <feBlend in="SourceGraphic" in2="BackgroundImageFix" result="shape"></feBlend>
      <feGaussianBlur result="effect1_foregroundBlur_6891_5252" stdDeviation=".25"></feGaussianBlur>
    </filter>
    <filter id="filter18_f_6891_5252" width="1.472" height="1.472" x="19.471" y="17.027" color-interpolation-filters="sRGB" filterUnits="userSpaceOnUse">
      <feFlood flood-opacity="0" result="BackgroundImageFix"></feFlood>
      <feBlend in="SourceGraphic" in2="BackgroundImageFix" result="shape"></feBlend>
      <feGaussianBlur result="effect1_foregroundBlur_6891_5252" stdDeviation=".25"></feGaussianBlur>
    </filter>
    <filter id="filter19_f_6891_5252" width="1.472" height="1.472" x="11.529" y="17.027" color-interpolation-filters="sRGB" filterUnits="userSpaceOnUse">
      <feFlood flood-opacity="0" result="BackgroundImageFix"></feFlood>
      <feBlend in="SourceGraphic" in2="BackgroundImageFix" result="shape"></feBlend>
      <feGaussianBlur result="effect1_foregroundBlur_6891_5252" stdDeviation=".25"></feGaussianBlur>
    </filter>
    <filter id="filter20_f_6891_5252" width="12.585" height="22.186" x="18.102" y="6.102" color-interpolation-filters="sRGB" filterUnits="userSpaceOnUse">
      <feFlood flood-opacity="0" result="BackgroundImageFix"></feFlood>
      <feBlend in="SourceGraphic" in2="BackgroundImageFix" result="shape"></feBlend>
      <feGaussianBlur result="effect1_foregroundBlur_6891_5252" stdDeviation="2"></feGaussianBlur>
    </filter>
    <filter id="filter21_f_6891_5252" width="4.825" height="7.138" x="22.409" y="6.767" color-interpolation-filters="sRGB" filterUnits="userSpaceOnUse">
      <feFlood flood-opacity="0" result="BackgroundImageFix"></feFlood>
      <feBlend in="SourceGraphic" in2="BackgroundImageFix" result="shape"></feBlend>
      <feGaussianBlur result="effect1_foregroundBlur_6891_5252" stdDeviation=".3"></feGaussianBlur>
    </filter>
    <filter id="filter22_f_6891_5252" width="4.531" height="4.734" x="22.727" y="9.289" color-interpolation-filters="sRGB" filterUnits="userSpaceOnUse">
      <feFlood flood-opacity="0" result="BackgroundImageFix"></feFlood>
      <feBlend in="SourceGraphic" in2="BackgroundImageFix" result="shape"></feBlend>
      <feGaussianBlur result="effect1_foregroundBlur_6891_5252" stdDeviation=".375"></feGaussianBlur>
    </filter>
    <filter id="filter23_f_6891_5252" width="4.469" height="6.908" x="4.723" y="6.999" color-interpolation-filters="sRGB" filterUnits="userSpaceOnUse">
      <feFlood flood-opacity="0" result="BackgroundImageFix"></feFlood>
      <feBlend in="SourceGraphic" in2="BackgroundImageFix" result="shape"></feBlend>
      <feGaussianBlur result="effect1_foregroundBlur_6891_5252" stdDeviation=".25"></feGaussianBlur>
    </filter>
    <filter id="filter24_f_6891_5252" width="1.15" height="6.338" x="4.648" y="7.152" color-interpolation-filters="sRGB" filterUnits="userSpaceOnUse">
      <feFlood flood-opacity="0" result="BackgroundImageFix"></feFlood>
      <feBlend in="SourceGraphic" in2="BackgroundImageFix" result="shape"></feBlend>
      <feGaussianBlur result="effect1_foregroundBlur_6891_5252" stdDeviation=".25"></feGaussianBlur>
    </filter>
    <radialGradient id="paint5_radial_6891_5252" cx="0" cy="0" r="1" gradientTransform="matrix(3.04569 4.424 -8.78922 6.0509 22.175 4.477)" gradientUnits="userSpaceOnUse">
      <stop stop-color="#FFA720"></stop>
      <stop offset=".921" stop-color="#FFA720" stop-opacity="0"></stop>
    </radialGradient>
    <radialGradient id="paint10_radial_6891_5252" cx="0" cy="0" r="1" gradientTransform="matrix(-1.89063 -.95312 .95876 -1.9018 16.446 21.18)" gradientUnits="userSpaceOnUse">
      <stop stop-color="#EA088B"></stop>
      <stop offset="1" stop-color="#E61E27"></stop>
    </radialGradient>
    <radialGradient id="paint27_radial_6891_5252" cx="0" cy="0" r="1" gradientTransform="matrix(4.40625 6.46875 -7.7559 5.283 22.868 7.773)" gradientUnits="userSpaceOnUse">
      <stop stop-color="#FFDF70"></stop>
      <stop offset="1" stop-color="#FFDF70" stop-opacity="0"></stop>
    </radialGradient>
  </defs>
</svg>
